<svg xmlns="http://www.w3.org/2000/svg" viewBox="0 0 223.06 119.9"><defs><style>.cls-1{fill:#fff;}</style></defs><title>vertical-logo-wholewhite</title><g id="Layer_2" data-name="Layer 2"><g id="Layer_1-2" data-name="Layer 1"><path class="cls-1" d="M35.12,95.83a9.83,9.83,0,0,1-7.56,2.9A10.08,10.08,0,0,1,21,96.61V104H17.43V79.48H21v1.68a10.18,10.18,0,0,1,6.51-2.09,10.09,10.09,0,0,1,7.56,2.8,9.59,9.59,0,0,1,2.57,7A9.69,9.69,0,0,1,35.12,95.83ZM32.46,84.14a6,6,0,0,0-4.71-1.83,6.73,6.73,0,0,0-4.94,1.79A6.32,6.32,0,0,0,21,88.79q0,6.67,6.7,6.67a6.19,6.19,0,0,0,4.8-1.86,7.7,7.7,0,0,0,0-9.46Z"/><path class="cls-1" d="M56,97.77V96.5a10.2,10.2,0,0,1-5.84,1.6,9.85,9.85,0,0,1-6.07-1.71A6.25,6.25,0,0,1,41.6,91.1V79.52h3.57V91.06q0,3.89,5,3.88,5.84,0,5.84-5.63V79.52h3.58V97.77Z"/><path class="cls-1" d="M69.38,84.66a9.46,9.46,0,0,0-1.49,5.55v7.48H64.31V79.45h3.58v1.67c1.76-1.36,4.41-2.05,7.93-2.05v3.17C72.64,82.24,70.5,83,69.38,84.66Z"/><path class="cls-1" d="M97,95.83a9.83,9.83,0,0,1-7.56,2.9,10.08,10.08,0,0,1-6.55-2.12V104H79.32V79.48H82.9v1.68A11.41,11.41,0,0,1,97,81.87a9.59,9.59,0,0,1,2.57,7A9.69,9.69,0,0,1,97,95.83ZM94.35,84.14a6,6,0,0,0-4.71-1.83A6.73,6.73,0,0,0,84.7,84.1a6.32,6.32,0,0,0-1.8,4.69q0,6.67,6.7,6.67a6.19,6.19,0,0,0,4.8-1.86,7.7,7.7,0,0,0-.05-9.46Z"/><path class="cls-1" d="M103.49,97.69V72.44h3.57V97.69Z"/><path class="cls-1" d="M114.14,90q.63,4.92,6.55,4.92c3.23,0,5.4-1.36,6.52-4.06h3.69c-1.05,3-2.52,5-4.44,6a12.66,12.66,0,0,1-5.84,1.27c-3.3,0-5.84-.88-7.6-2.64a10.12,10.12,0,0,1,.26-13.67,10.33,10.33,0,0,1,7.52-2.72,11.09,11.09,0,0,1,7.45,2.42A8.1,8.1,0,0,1,131.08,88v2Zm11.43-6.18a6.7,6.7,0,0,0-4.77-1.6,6.84,6.84,0,0,0-4.8,1.6,5.72,5.72,0,0,0-1.75,3h13A5.43,5.43,0,0,0,125.57,83.84Z"/><path class="cls-1" d="M140.32,83.13V97.69h-3.5l-.08-14.56H133V79.89h3.72V74.83h3.58v5.06h3.76v3.24Z"/><path class="cls-1" d="M152.46,84.66A9.39,9.39,0,0,0,151,90.21v7.48h-3.58V79.45H151v1.67c1.76-1.36,4.4-2.05,7.93-2.05v3.17C155.72,82.24,153.57,83,152.46,84.66Z"/><path class="cls-1" d="M178,97.73V96a10.47,10.47,0,0,1-6.74,2.08,10,10,0,0,1-7.45-2.79,10,10,0,0,1,0-13.44,10.18,10.18,0,0,1,7.56-2.8,10.59,10.59,0,0,1,6.59,2V79.15h3.57V97.73ZM176.31,84a6.91,6.91,0,0,0-5.05-1.71,6.25,6.25,0,0,0-4.8,1.86,6.46,6.46,0,0,0-1.61,4.54,5.93,5.93,0,0,0,6.41,6.3,6.77,6.77,0,0,0,4.93-1.79A6,6,0,0,0,178,88.64,6.32,6.32,0,0,0,176.31,84Z"/><path class="cls-1" d="M201.79,96.72A11.63,11.63,0,0,1,196,98.1a10.88,10.88,0,0,1-7.56-2.53,8.51,8.51,0,0,1-2.83-6.67,9.32,9.32,0,0,1,2.88-7.11,11.1,11.1,0,0,1,7.92-2.72,10.72,10.72,0,0,1,5.36,1.31,8.14,8.14,0,0,1,3.65,5.1L202.13,87a6.93,6.93,0,0,0-2.07-3.71,6,6,0,0,0-3.74-1,7.21,7.21,0,0,0-5.27,1.82,6.51,6.51,0,0,0-1.84,4.84,5.6,5.6,0,0,0,1.71,4.36,7.06,7.06,0,0,0,5,1.68,7.83,7.83,0,0,0,3.93-1c1.1-.64,1.88-2,2.32-4.16l3.43,1.34A8.44,8.44,0,0,1,201.79,96.72Z"/><path class="cls-1" d="M3.93,113.29v6.53H2.87v-6.53H0v-1H6.79v1Z"/><path class="cls-1" d="M15.16,116.17A1.8,1.8,0,0,1,16,117.8v2H15v-2c0-.77-.61-1.15-1.81-1.15h-2.7v3.13H9.39v-7.49h3.86c1.92,0,2.88.7,2.88,2.08A1.93,1.93,0,0,1,15.16,116.17Zm-1.89-2.88H10.45v2.42h2.64a2.78,2.78,0,0,0,1.4-.29,1.06,1.06,0,0,0,.58-1C15.07,113.68,14.47,113.29,13.27,113.29Z"/><path class="cls-1" d="M25.48,119.82l-1.08-2.21H20.71l-1.09,2.21H18.43l3.75-7.49H23l3.63,7.49Zm-2.89-5.93-1.39,2.76h2.74Z"/><path class="cls-1" d="M35.88,114.44a2.85,2.85,0,0,0-1.1-.94,3.61,3.61,0,0,0-1.53-.28,3.41,3.41,0,0,0-2.36.78,2.68,2.68,0,0,0-.86,2.09,2.72,2.72,0,0,0,.82,2.08,3.23,3.23,0,0,0,2.28.77,3.62,3.62,0,0,0,1.5-.29,3.36,3.36,0,0,0,1.16-1l.91.54a4.38,4.38,0,0,1-3.56,1.66,4.4,4.4,0,0,1-3-1A3.54,3.54,0,0,1,29,116.13a3.6,3.6,0,0,1,1.17-2.82,4.49,4.49,0,0,1,3.11-1,4.18,4.18,0,0,1,3.53,1.64Z"/><path class="cls-1" d="M46.22,119.82l-4.09-3.62-1.33,1v2.67H39.74v-7.49H40.8V116L46,112.33h1.75L43,115.62l4.75,4.2Z"/><path class="cls-1" d="M49.9,119.82v-7.49H51v7.49Z"/><path class="cls-1" d="M60.26,119.82l-5-5.81v5.81H54.14v-7.49h1c.65.77,1.5,1.75,2.56,2.94l2.52,2.84v-5.78h1.06v7.49Z"/><path class="cls-1" d="M71.37,116.89H68.16v-1h4.22a7.18,7.18,0,0,1,.07.81,2.8,2.8,0,0,1-1.23,2.41,4.58,4.58,0,0,1-2.7.77,4.75,4.75,0,0,1-3.14-1,3.44,3.44,0,0,1-1.23-2.83,3.55,3.55,0,0,1,1.18-2.81,4.51,4.51,0,0,1,3.11-1,4.81,4.81,0,0,1,2.42.55,3.46,3.46,0,0,1,1.54,2.4H71.31a2.46,2.46,0,0,0-.93-1.52,3.32,3.32,0,0,0-1.93-.47,3.39,3.39,0,0,0-2.37.76,2.68,2.68,0,0,0-.85,2.11,2.61,2.61,0,0,0,.86,2.11,3.62,3.62,0,0,0,2.43.74,3.5,3.5,0,0,0,2-.56A1.78,1.78,0,0,0,71.37,116.89Z"/><path class="cls-1" d="M88,119.38a4.25,4.25,0,0,1-2.06.44H82.14v-7.49h4a3.41,3.41,0,0,1,1.85.47,1.77,1.77,0,0,1,.9,1.61,1.69,1.69,0,0,1-.87,1.46,1.82,1.82,0,0,1,1.11,1.77A1.85,1.85,0,0,1,88,119.38Zm-.7-5.81a2.5,2.5,0,0,0-1.24-.28H83.2v2.16h2.88a2.44,2.44,0,0,0,1.25-.28.87.87,0,0,0,.48-.8A.86.86,0,0,0,87.33,113.57Zm.18,3.15a3,3,0,0,0-1.45-.3H83.2v2.44h2.91a2.75,2.75,0,0,0,1.37-.3,1,1,0,0,0,0-1.84Z"/><path class="cls-1" d="M98.05,119.23a4,4,0,0,1-2.52.67c-2.3,0-3.45-1-3.45-3v-4.61h1.06v4.61a1.89,1.89,0,0,0,.57,1.51,2.75,2.75,0,0,0,1.82.49,2.79,2.79,0,0,0,1.82-.5,1.79,1.79,0,0,0,.57-1.47v-4.64H99V117A2.73,2.73,0,0,1,98.05,119.23Z"/><path class="cls-1" d="M105.6,119.9a5.18,5.18,0,0,1-2.45-.51,2.19,2.19,0,0,1-1.21-2.07v-.49H103v.45c0,1.11.87,1.66,2.61,1.66a3.76,3.76,0,0,0,1.54-.27,1,1,0,0,0,.71-.89.79.79,0,0,0-.22-.63,2,2,0,0,0-.79-.35c-.22-.06-.74-.17-1.55-.33a9.8,9.8,0,0,1-2-.55,1.73,1.73,0,0,1-1.14-1.63c0-1.36,1.07-2,3.2-2s3.36.91,3.39,2.73h-1c0-.78-.28-1.28-.69-1.49a3.7,3.7,0,0,0-1.66-.28c-1.42,0-2.14.36-2.14,1.07a.81.81,0,0,0,.51.76,6.45,6.45,0,0,0,1.47.38,9.56,9.56,0,0,1,2.76.74,1.74,1.74,0,0,1,.94,1.63,1.77,1.77,0,0,1-1.18,1.67A4.88,4.88,0,0,1,105.6,119.9Z"/><path class="cls-1" d="M112,119.82v-7.49h1.06v7.49Z"/><path class="cls-1" d="M122.4,119.82,117.34,114v5.81h-1.06v-7.49h1q1,1.15,2.55,2.94l2.52,2.84v-5.78h1.06v7.49Z"/><path class="cls-1" d="M126.55,119.82v-7.49h6.2v1H127.6v2.16h4.56v1H127.6v2.45h5.2v1Z"/><path class="cls-1" d="M139,119.9a5.15,5.15,0,0,1-2.45-.51,2.2,2.2,0,0,1-1.22-2.07v-.49h1.07v.45c0,1.11.87,1.66,2.61,1.66a3.81,3.81,0,0,0,1.55-.27.94.94,0,0,0,.7-.89.79.79,0,0,0-.22-.63,2,2,0,0,0-.78-.35q-.33-.09-1.56-.33a10.23,10.23,0,0,1-2-.55,1.73,1.73,0,0,1-1.14-1.63c0-1.36,1.07-2,3.21-2s3.35.91,3.38,2.73h-1c0-.78-.28-1.28-.68-1.49a3.76,3.76,0,0,0-1.66-.28c-1.43,0-2.14.36-2.14,1.07a.8.8,0,0,0,.5.76,6.45,6.45,0,0,0,1.47.38,9.56,9.56,0,0,1,2.76.74,1.74,1.74,0,0,1,.94,1.63,1.77,1.77,0,0,1-1.18,1.67A4.86,4.86,0,0,1,139,119.9Z"/><path class="cls-1" d="M148.82,119.9a5.15,5.15,0,0,1-2.45-.51,2.19,2.19,0,0,1-1.21-2.07v-.49h1.07v.45c0,1.11.87,1.66,2.6,1.66a3.78,3.78,0,0,0,1.55-.27,1,1,0,0,0,.71-.89.83.83,0,0,0-.22-.63,2,2,0,0,0-.79-.35c-.22-.06-.74-.17-1.55-.33a9.8,9.8,0,0,1-2-.55,1.73,1.73,0,0,1-1.14-1.63c0-1.36,1.07-2,3.2-2s3.35.91,3.38,2.73h-1c-.06-.78-.28-1.28-.69-1.49a3.7,3.7,0,0,0-1.66-.28c-1.43,0-2.14.36-2.14,1.07a.81.81,0,0,0,.51.76,6.45,6.45,0,0,0,1.47.38,9.56,9.56,0,0,1,2.76.74,1.74,1.74,0,0,1,.94,1.63,1.78,1.78,0,0,1-1.18,1.67A4.88,4.88,0,0,1,148.82,119.9Z"/><path class="cls-1" d="M169.47,119.82v-5.28l-2.86,5.28h-.76L163,114.54v5.28h-1.07v-7.49h1l3.26,6,3.27-6h1v7.49Z"/><path class="cls-1" d="M173.74,119.82v-7.49h6.19v1h-5.14v2.16h4.56v1h-4.56v2.45H180v1Z"/><path class="cls-1" d="M186.05,113.29v6.53H185v-6.53h-2.87v-1h6.8v1Z"/><path class="cls-1" d="M197.28,116.17a1.8,1.8,0,0,1,.86,1.63v2h-1.06v-2c0-.77-.61-1.15-1.81-1.15h-2.7v3.13h-1.06v-7.49h3.86c1.92,0,2.88.7,2.88,2.08A1.91,1.91,0,0,1,197.28,116.17Zm-1.89-2.88h-2.82v2.42h2.64a2.85,2.85,0,0,0,1.41-.29,1.07,1.07,0,0,0,.57-1C197.19,113.68,196.59,113.29,195.39,113.29Z"/><path class="cls-1" d="M201.37,119.82v-7.49h1.06v7.49Z"/><path class="cls-1" d="M212.46,114.44a2.92,2.92,0,0,0-1.1-.94,3.64,3.64,0,0,0-1.53-.28,3.39,3.39,0,0,0-2.36.78,2.66,2.66,0,0,0-.87,2.09,2.76,2.76,0,0,0,.82,2.08,3.24,3.24,0,0,0,2.29.77,3.53,3.53,0,0,0,1.49-.29,3.3,3.3,0,0,0,1.17-1l.9.54a4.8,4.8,0,0,1-6.59.64,3.51,3.51,0,0,1-1.14-2.75,3.6,3.6,0,0,1,1.17-2.82,4.5,4.5,0,0,1,3.12-1,4.18,4.18,0,0,1,3.52,1.64Z"/><path class="cls-1" d="M219.74,119.9a5.15,5.15,0,0,1-2.45-.51,2.2,2.2,0,0,1-1.22-2.07v-.49h1.07v.45c0,1.11.87,1.66,2.61,1.66a3.81,3.81,0,0,0,1.55-.27.94.94,0,0,0,.7-.89.79.79,0,0,0-.22-.63,2,2,0,0,0-.78-.35q-.33-.09-1.56-.33a10.23,10.23,0,0,1-2-.55,1.72,1.72,0,0,1-1.13-1.63c0-1.36,1.06-2,3.2-2s3.35.91,3.38,2.73h-1c-.05-.78-.28-1.28-.68-1.49a3.73,3.73,0,0,0-1.66-.28c-1.43,0-2.14.36-2.14,1.07a.8.8,0,0,0,.5.76,6.45,6.45,0,0,0,1.47.38,9.76,9.76,0,0,1,2.77.74,1.75,1.75,0,0,1,.93,1.63,1.77,1.77,0,0,1-1.18,1.67A4.83,4.83,0,0,1,219.74,119.9Z"/><path class="cls-1" d="M97.42,9.27c.32,0,.64,0,1,0h30.48A16,16,0,0,0,114.45,0H92.74A11.57,11.57,0,0,0,97.42,9.27Z"/><path class="cls-1" d="M92.74,40.53A11.61,11.61,0,0,0,104.17,52.1V20.8H92.74Z"/><path class="cls-1" d="M121.54,20.8h-5.79v11a16.06,16.06,0,0,0,14.58-15A11.58,11.58,0,0,1,121.54,20.8Z"/></g></g></svg>