<svg xmlns="http://www.w3.org/2000/svg" xmlns:xlink="http://www.w3.org/1999/xlink" viewBox="0 0 132.05 185.32"><defs><style>.cls-1{mask:url(#mask);filter:url(#luminosity-noclip-2);}.cls-2,.cls-5{mix-blend-mode:multiply;}.cls-2{fill:url(#linear-gradient);}.cls-3{isolation:isolate;}.cls-4{fill:url(#linear-gradient-2);}.cls-5{fill:#d0d2d3;}.cls-6{mix-blend-mode:screen;}.cls-7{mask:url(#mask-2);}.cls-8{fill:url(#linear-gradient-3);}.cls-9{fill:#fff;}.cls-10{filter:url(#luminosity-noclip);}</style><filter id="luminosity-noclip" x="67.17" y="-5033.53" width="57.48" height="32766" filterUnits="userSpaceOnUse" color-interpolation-filters="sRGB"><feFlood flood-color="#fff" result="bg"/><feBlend in="SourceGraphic" in2="bg"/></filter><mask id="mask" x="67.17" y="-5033.53" width="57.48" height="32766" maskUnits="userSpaceOnUse"><g class="cls-10"/></mask><linearGradient id="linear-gradient" x1="95.91" y1="6.7" x2="95.91" y2="101.69" gradientUnits="userSpaceOnUse"><stop offset="0" stop-color="#fff"/><stop offset="0.01" stop-color="#f6f6f6"/><stop offset="0.05" stop-color="#c8c8c8"/><stop offset="0.09" stop-color="#9d9d9d"/><stop offset="0.14" stop-color="#777"/><stop offset="0.2" stop-color="#575757"/><stop offset="0.25" stop-color="#3b3b3b"/><stop offset="0.32" stop-color="#252525"/><stop offset="0.4" stop-color="#141414"/><stop offset="0.49" stop-color="#090909"/><stop offset="0.63" stop-color="#020202"/><stop offset="1"/></linearGradient><linearGradient id="linear-gradient-2" x1="117.88" y1="38.97" x2="29.9" y2="112.91" gradientUnits="userSpaceOnUse"><stop offset="0" stop-color="#4d148c"/><stop offset="0.55" stop-color="#a45bd6"/><stop offset="1" stop-color="#4d148c"/></linearGradient><filter id="luminosity-noclip-2" x="67.17" y="6.7" width="57.48" height="87.03" filterUnits="userSpaceOnUse" color-interpolation-filters="sRGB"><feFlood flood-color="#fff" result="bg"/><feBlend in="SourceGraphic" in2="bg"/></filter><mask id="mask-2" x="67.17" y="6.7" width="57.48" height="87.03" maskUnits="userSpaceOnUse"><g class="cls-1"><path class="cls-2" d="M113.41,93.73l-.85-1.07a2,2,0,0,1,0-2.41l.11-.15c1.1-1.77,8.13-13.7,8.13-27.83A51.78,51.78,0,0,0,69.09,10.55a1.93,1.93,0,0,1,0-3.85,55.63,55.63,0,0,1,55.56,55.57,58.1,58.1,0,0,1-4.44,21.32,64.55,64.55,0,0,1-3.07,6.48c-1.6,2.93-1.81,3-2.43,3.22Z"/></g></mask><linearGradient id="linear-gradient-3" x1="95.91" y1="6.7" x2="95.91" y2="101.69" gradientUnits="userSpaceOnUse"><stop offset="0" stop-color="#fff"/><stop offset="0.09" stop-color="#fff" stop-opacity="0.94"/><stop offset="0.27" stop-color="#fff" stop-opacity="0.79"/><stop offset="0.51" stop-color="#fff" stop-opacity="0.55"/><stop offset="0.81" stop-color="#fff" stop-opacity="0.22"/><stop offset="1" stop-color="#fff" stop-opacity="0"/></linearGradient></defs><title>logo-balloon</title><g class="cls-3"><g id="Layer_2" data-name="Layer 2"><g id="Layer_1-2" data-name="Layer 1"><path class="cls-4" d="M132.05,66A66,66,0,1,0,12.42,104.55h0L66,185.32l54.63-82.22c.11-.15.21-.31.32-.47l.57-.87h0A65.72,65.72,0,0,0,132.05,66Z"/><path class="cls-5" d="M132.05,66A66,66,0,1,0,12.42,104.55h0L66,185.32l54.63-82.22c.11-.15.21-.31.32-.47l.57-.87h0A65.72,65.72,0,0,0,132.05,66Z"/><g class="cls-6"><g class="cls-7"><path class="cls-8" d="M113.41,93.73l-.85-1.07a2,2,0,0,1,0-2.41l.11-.15c1.1-1.77,8.13-13.7,8.13-27.83A51.78,51.78,0,0,0,69.09,10.55a1.93,1.93,0,0,1,0-3.85,55.63,55.63,0,0,1,55.56,55.57,58.1,58.1,0,0,1-4.44,21.32,64.55,64.55,0,0,1-3.07,6.48c-1.6,2.93-1.81,3-2.43,3.22Z"/></g></g><path class="cls-9" d="M46.61,49.44c.51,0,1-.08,1.53-.08H96.5A25.32,25.32,0,0,0,73.63,34.69H39.19A18.43,18.43,0,0,0,46.61,49.44Z"/><path class="cls-9" d="M39.19,99.18a18.45,18.45,0,0,0,18.14,18.41V67.79H39.19Z"/><path class="cls-9" d="M84.89,67.79H75.7V85.26a25.51,25.51,0,0,0,23.13-24A18.34,18.34,0,0,1,84.89,67.79Z"/></g></g></g></svg>
